<?xml version="1.0" encoding="iso-8859-1"?>
<!-- Generator: Adobe Illustrator 19.0.0, SVG Export Plug-In . SVG Version: 6.00 Build 0)  -->
<svg version="1.1" id="Layer_1" xmlns="http://www.w3.org/2000/svg" xmlns:xlink="http://www.w3.org/1999/xlink" x="0px" y="0px"
	 viewBox="0 0 512 512" style="enable-background:new 0 0 512 512;" xml:space="preserve">
<circle style="fill:#E1EFFA;" cx="256" cy="256" r="256"/>
<path style="fill:#BCD4E8;" d="M509.107,294.515c-42.378-42.381-129.823-129.828-129.889-129.892
	c-0.087-0.087-0.156-0.182-0.243-0.266c-14.502-14.5-33.518-21.757-52.534-21.757H221.75c-19.018,0-38.031,7.258-52.547,21.757
	c-4.933,4.946-8.96,10.429-12.219,16.238l-12.434,5.494c-0.023-0.013-0.054-0.013-0.074-0.028c-0.154-0.202-2.388-2.458-2.583-2.588
	c-0.699-0.906-1.964-1.19-2.962-0.594c-1.07,0.653-1.421,2.051-0.776,3.141l3.812,6.336c-0.036-0.036-0.061-0.069-0.105-0.108
	l-0.054-0.072c-0.123-0.179-4.948-4.959-5.11-5.094l-0.056-0.077c-0.717-1.029-2.153-1.272-3.18-0.54
	c-1.014,0.727-1.26,2.156-0.543,3.185l6.208,8.719c-0.044-0.044-0.092-0.069-0.133-0.105l-0.246-0.294
	c-0.074-0.084-7.229-7.235-7.229-7.235c-0.804-0.973-2.255-1.098-3.22-0.302c-0.97,0.801-1.106,2.243-0.3,3.21l7.281,8.786
	c0.074,0.084,0.174,0.133,0.264,0.207l0.256,0.307c0.072,0.087,3.791,3.758,3.884,3.835l0.133,0.164
	c-0.069,0.264-0.174,0.522-0.238,0.786c-0.008-0.013-0.028-0.013-0.038-0.028l-4.593-4.613c-0.02-0.02-0.046-0.028-0.067-0.044
	c0,0-7.729-7.729-7.749-7.749l-0.456-0.479c-0.87-0.904-2.324-0.924-3.223-0.054c-0.909,0.873-0.927,2.322-0.059,3.213l7.913,8.23
	c0.013,0.013,0.036,0.013,0.049,0.028l7.186,7.206c0.02,0.013,0.041,0.02,0.056,0.036l0.061,0.067
	c-0.044,0.422-0.056,0.85-0.077,1.27l-0.041-0.041c-0.051-0.054-0.072-0.115-0.128-0.159l-7.626-7.585
	c-0.046-0.056-0.067-0.123-0.12-0.164l-8.509-7.598c-0.937-0.829-2.381-0.758-3.22,0.179c-0.832,0.934-0.758,2.386,0.177,3.228
	l8.141,8.095c0.049,0.056,0.074,0.12,0.125,0.169l7.114,7.073c0.051,0.049,0.069,0.115,0.12,0.164l0.02,0.013
	c-0.077,0.072-0.156,0.131-0.225,0.2c-0.056-0.049-0.087-0.118-0.148-0.164l-0.197-0.151c-0.108-0.125-6.72-6.72-6.72-6.72
	c-0.102-0.12-0.184-0.264-0.32-0.364l-9.047-6.948c-0.991-0.773-2.429-0.586-3.2,0.415c-0.763,0.991-0.573,2.442,0.422,3.2
	c0,0,6.067,6.098,6.198,6.198l0.015,0.008l-7.252-4.749c-1.044-0.689-2.463-0.392-3.149,0.663c-0.653,0.993-0.404,2.307,0.52,3.028
	c0.133,0.2,4.454,4.5,4.657,4.659c0.026,0.036,0.067,0.056,0.095,0.092l-5.558-3.067c-1.096-0.614-2.493-0.207-3.095,0.888
	c-0.553,0.998-0.238,2.204,0.645,2.883c0.141,0.2,3.428,3.466,3.625,3.625c0.069,0.092,0.141,0.179,0.223,0.264l-4.424-2.022
	c-1.144-0.527-2.504-0.02-3.021,1.124c-0.463,0.998-0.1,2.13,0.75,2.749c0.141,0.2,2.893,2.949,3.098,3.1
	c0.056,0.072,0.084,0.161,0.143,0.228l-3.592-1.324c-1.18-0.428-2.493,0.179-2.929,1.359c-0.358,0.98,0.031,2.028,0.842,2.606
	c0.148,0.207,2.806,2.893,2.957,3.016l-3.034-0.858c-1.208-0.343-2.473,0.369-2.819,1.577c-0.266,0.96,0.133,1.928,0.906,2.47
	c0.148,0.195,2.381,2.435,2.586,2.578c0.056,0.082,0.113,0.146,0.174,0.215l-2.557-0.512c-1.229-0.246-2.429,0.561-2.683,1.784
	c-0.182,0.929,0.23,1.843,0.973,2.345c0.151,0.197,2.378,2.447,2.58,2.586c0.013,0.02,0.036,0.036,0.049,0.049l-2.135-0.248
	c-1.242-0.151-2.388,0.74-2.527,1.997c-0.11,0.837,0.287,1.6,0.927,2.074c0.141,0.2,1.861,1.907,2.058,2.058
	c0.148,0.207,0.323,0.374,0.525,0.52c0.02,0.038,0.028,0.074,0.054,0.102l-1.741-0.061c-1.254-0.059-2.317,0.934-2.368,2.184
	c-0.036,0.786,0.366,1.457,0.963,1.892c0.141,0.207,2.381,2.445,2.586,2.591c0.013,0.018,0.028,0.046,0.041,0.067l-1.4,0.049
	c-1.252,0.059-2.243,1.121-2.186,2.368c0.028,0.737,0.422,1.357,0.983,1.751c0.143,0.202,2.291,2.373,2.437,2.501l-0.883,0.097
	c-1.242,0.156-2.153,1.293-1.989,2.534c0.077,0.676,0.463,1.236,0.986,1.595c0.151,0.197,1.859,1.917,2.061,2.066
	c0.077,0.097,0.156,0.197,0.248,0.287l-0.443,0.084c-1.229,0.253-2.033,1.459-1.795,2.691c0.115,0.556,3.126,3.602,3.228,3.707
	l-0.082,0.023c-1.201,0.343-1.91,1.608-1.574,2.808c0.141,0.507,3.092,3.464,3.19,3.556c-1.016,0.504-1.533,1.7-1.137,2.796
	c0.161,0.435,3.069,3.336,3.177,3.436c-0.778,0.637-1.091,1.728-0.648,2.675c0.174,0.384,3.041,3.238,3.172,3.343
	c-0.563,0.701-0.678,1.7-0.22,2.522c0.174,0.323,3.095,3.203,3.295,3.336c-0.358,0.709-0.374,1.567,0.092,2.284
	c0.141,0.205,3.3,3.287,3.395,3.392c-0.151,0.645-0.059,1.347,0.374,1.91c0.131,0.174,3.4,3.377,3.561,3.505
	c0.02,0.036,0.028,0.077,0.054,0.113c0.028,0.497,0.182,0.998,0.54,1.398c0.113,0.12,42.632,42.785,42.721,42.87v4.931
	c0,1.643,0.625,3.279,1.866,4.523c0.069,0.069,101.883,101.85,140.035,139.986C409.795,487.544,492.89,402.017,509.107,294.515z"/>
<g>
	<path style="fill:#34495E;" d="M181.435,341.914c0,1.252,1.032,2.278,2.284,2.278l0,0c1.257,0,2.276-1.024,2.276-2.278v-11.405
		c0-1.249-1.019-2.291-2.276-2.291l0,0c-1.249,0-2.284,1.039-2.284,2.291V341.914z"/>
	<path style="fill:#34495E;" d="M174.676,341.466c-0.095,1.257,0.847,2.345,2.097,2.458l0,0c1.249,0.097,2.355-0.85,2.445-2.099
		l0.911-11.369c0.1-1.249-0.85-2.353-2.099-2.445l0,0c-1.249-0.113-2.358,0.835-2.45,2.084L174.676,341.466z"/>
	<path style="fill:#34495E;" d="M168.077,340.503c-0.197,1.242,0.66,2.406,1.897,2.614l0,0c1.242,0.189,2.409-0.668,2.614-1.902
		l1.784-11.267c0.205-1.234-0.65-2.406-1.889-2.614l0,0c-1.244-0.187-2.412,0.668-2.609,1.905L168.077,340.503z"/>
	<path style="fill:#34495E;" d="M161.659,339.028c-0.294,1.226,0.456,2.473,1.684,2.76l0,0c1.208,0.287,2.452-0.466,2.747-1.679
		l2.668-11.095c0.292-1.224-0.471-2.458-1.684-2.747l0,0c-1.229-0.3-2.465,0.458-2.755,1.687L161.659,339.028z"/>
	<path style="fill:#34495E;" d="M155.425,337.091c-0.387,1.193,0.274,2.486,1.469,2.87l0,0c1.19,0.402,2.486-0.259,2.87-1.452
		l3.525-10.857c0.379-1.188-0.266-2.488-1.475-2.865l0,0c-1.185-0.387-2.486,0.266-2.865,1.467L155.425,337.091z"/>
	<path style="fill:#34495E;" d="M149.425,334.707c-0.481,1.152,0.077,2.501,1.239,2.977l0,0c1.155,0.474,2.501-0.082,2.982-1.242
		l4.344-10.547c0.468-1.167-0.087-2.504-1.242-2.972l0,0c-1.162-0.489-2.511,0.069-2.98,1.236L149.425,334.707z"/>
	<path style="fill:#34495E;" d="M143.657,331.871c-0.566,1.132-0.115,2.501,1.006,3.062l0,0c1.124,0.576,2.506,0.12,3.069-1.006
		l5.133-10.184c0.563-1.124,0.108-2.501-1.011-3.062l0,0c-1.116-0.563-2.496-0.113-3.062,1.014L143.657,331.871z"/>
	<path style="fill:#34495E;" d="M138.153,328.64c-0.645,1.068-0.294,2.481,0.776,3.126l0,0c1.07,0.653,2.483,0.302,3.128-0.765
		l5.891-9.769c0.648-1.08,0.297-2.486-0.771-3.141l0,0c-1.08-0.637-2.486-0.294-3.139,0.781L138.153,328.64z"/>
	<path style="fill:#34495E;" d="M132.92,325.015c-0.717,1.019-0.471,2.445,0.543,3.174l0,0c1.027,0.73,2.46,0.484,3.18-0.54
		l6.61-9.3c0.722-1.024,0.481-2.45-0.532-3.18l0,0c-1.032-0.724-2.465-0.479-3.182,0.54L132.92,325.015z"/>
	<path style="fill:#34495E;" d="M128,321.006c-0.806,0.97-0.671,2.417,0.3,3.218l0,0c0.965,0.806,2.417,0.668,3.22-0.302
		l7.273-8.773c0.806-0.975,0.668-2.422-0.302-3.223l0,0c-0.96-0.801-2.409-0.66-3.208,0.302L128,321.006z"/>
	<path style="fill:#34495E;" d="M123.392,316.657c-0.868,0.914-0.85,2.36,0.059,3.226l0,0c0.899,0.87,2.353,0.85,3.223-0.056
		l7.908-8.21c0.87-0.906,0.85-2.36-0.056-3.231l0,0c-0.899-0.863-2.355-0.835-3.223,0.061L123.392,316.657z"/>
	<path style="fill:#34495E;" d="M119.112,311.987c-0.934,0.822-1.009,2.284-0.177,3.218l0,0c0.845,0.934,2.284,1.016,3.22,0.189
		l8.509-7.621c0.932-0.829,1.011-2.276,0.177-3.218l0,0c-0.845-0.927-2.291-1.016-3.22-0.174L119.112,311.987z"/>
	<path style="fill:#34495E;" d="M115.203,307.003c-0.993,0.758-1.183,2.196-0.422,3.187l0,0c0.768,1.006,2.209,1.188,3.2,0.422
		l9.047-6.948c0.993-0.758,1.193-2.196,0.422-3.195l0,0c-0.765-0.991-2.202-1.18-3.195-0.42L115.203,307.003z"/>
	<path style="fill:#34495E;" d="M111.665,301.727c-1.05,0.689-1.336,2.099-0.648,3.159l0,0c0.689,1.032,2.107,1.334,3.149,0.648
		l9.541-6.244c1.055-0.689,1.352-2.112,0.66-3.159l0,0c-0.689-1.052-2.107-1.347-3.159-0.66L111.665,301.727z"/>
	<path style="fill:#34495E;" d="M108.534,296.179c-1.106,0.594-1.51,1.999-0.904,3.09l0,0c0.604,1.103,2.002,1.51,3.095,0.899
		l9.994-5.512c1.088-0.609,1.495-2.007,0.886-3.098l0,0c-0.604-1.103-1.997-1.51-3.103-0.893L108.534,296.179z"/>
	<path style="fill:#34495E;" d="M105.805,290.378c-1.144,0.527-1.654,1.889-1.124,3.028l0,0c0.517,1.137,1.874,1.651,3.021,1.121
		l10.365-4.733c1.147-0.535,1.656-1.894,1.129-3.036l0,0c-0.52-1.129-1.882-1.644-3.021-1.116L105.805,290.378z"/>
	<path style="fill:#34495E;" d="M103.511,284.365c-1.183,0.43-1.787,1.751-1.359,2.931l0,0c0.435,1.172,1.748,1.782,2.929,1.347
		l10.719-3.94c1.167-0.428,1.777-1.741,1.344-2.921l0,0c-0.433-1.18-1.748-1.792-2.926-1.357L103.511,284.365z"/>
	<path style="fill:#34495E;" d="M101.673,278.136c-1.201,0.343-1.91,1.608-1.574,2.808l0,0c0.346,1.211,1.608,1.917,2.819,1.579
		l10.977-3.095c1.201-0.338,1.917-1.61,1.58-2.811l0,0c-0.343-1.216-1.608-1.917-2.819-1.587L101.673,278.136z"/>
	<path style="fill:#34495E;" d="M100.321,271.718c-1.229,0.253-2.033,1.459-1.795,2.691l0,0c0.253,1.229,1.454,2.038,2.683,1.789
		l11.187-2.232c1.229-0.246,2.043-1.454,1.792-2.683l0,0c-0.248-1.236-1.454-2.038-2.683-1.792L100.321,271.718z"/>
	<path style="fill:#34495E;" d="M99.459,265.149c-1.242,0.156-2.153,1.293-1.989,2.534l0,0c0.141,1.252,1.285,2.15,2.527,1.994
		l11.328-1.347c1.242-0.148,2.143-1.285,1.994-2.534l0,0c-0.148-1.242-1.293-2.143-2.537-1.979L99.459,265.149z"/>
	<path style="fill:#34495E;" d="M99.105,258.435c-1.252,0.059-2.243,1.121-2.186,2.368l0,0c0.051,1.265,1.114,2.255,2.368,2.207
		l11.4-0.458c1.257-0.051,2.232-1.119,2.191-2.376l0,0c-0.056-1.247-1.119-2.235-2.373-2.186L99.105,258.435z"/>
	<path style="fill:#34495E;" d="M99.287,251.651c-1.254-0.059-2.317,0.934-2.368,2.184l0,0c-0.056,1.249,0.934,2.314,2.186,2.363
		l11.397,0.468c1.257,0.036,2.317-0.945,2.373-2.202l0,0c0.041-1.249-0.934-2.314-2.191-2.363L99.287,251.651z"/>
	<path style="fill:#34495E;" d="M99.996,244.964c-1.242-0.151-2.388,0.74-2.527,1.997l0,0c-0.161,1.244,0.748,2.388,1.989,2.529
		l11.325,1.352c1.244,0.146,2.388-0.75,2.537-1.994l0,0c0.148-1.247-0.753-2.391-1.994-2.542L99.996,244.964z"/>
	<path style="fill:#34495E;" d="M101.21,238.451c-1.229-0.246-2.429,0.561-2.683,1.784l0,0c-0.238,1.234,0.566,2.45,1.795,2.693
		l11.185,2.23c1.226,0.236,2.437-0.566,2.683-1.787l0,0c0.253-1.236-0.561-2.447-1.792-2.693L101.21,238.451z"/>
	<path style="fill:#34495E;" d="M102.917,232.123c-1.208-0.343-2.473,0.369-2.819,1.577l0,0c-0.335,1.216,0.366,2.47,1.574,2.806
		l10.982,3.1c1.211,0.351,2.476-0.369,2.819-1.569l0,0c0.338-1.216-0.379-2.478-1.58-2.816L102.917,232.123z"/>
	<path style="fill:#34495E;" d="M105.08,225.999c-1.18-0.428-2.493,0.179-2.929,1.359l0,0c-0.428,1.175,0.177,2.493,1.354,2.929
		l10.711,3.945c1.175,0.422,2.493-0.179,2.926-1.359l0,0c0.43-1.175-0.179-2.493-1.344-2.929L105.08,225.999z"/>
	<path style="fill:#34495E;" d="M107.699,220.119c-1.144-0.527-2.504-0.02-3.021,1.124l0,0c-0.53,1.142-0.02,2.501,1.124,3.021
		l10.373,4.744c1.134,0.52,2.501,0.015,3.021-1.121l0,0c0.527-1.149,0.018-2.506-1.129-3.021L107.699,220.119z"/>
	<path style="fill:#34495E;" d="M110.725,214.484c-1.096-0.614-2.493-0.207-3.095,0.888l0,0c-0.607,1.098-0.205,2.493,0.904,3.098
		l9.969,5.524c1.106,0.607,2.501,0.2,3.103-0.904l0,0c0.612-1.093,0.205-2.493-0.886-3.09L110.725,214.484z"/>
	<path style="fill:#34495E;" d="M114.166,209.108c-1.044-0.689-2.463-0.392-3.149,0.663l0,0c-0.689,1.05-0.402,2.473,0.648,3.156
		l9.541,6.244c1.055,0.699,2.473,0.399,3.159-0.65l0,0c0.689-1.05,0.394-2.473-0.66-3.156L114.166,209.108z"/>
	<path style="fill:#34495E;" d="M117.98,204.037c-0.991-0.773-2.429-0.586-3.2,0.415l0,0c-0.763,0.991-0.573,2.442,0.422,3.2
		l9.05,6.948c0.993,0.765,2.429,0.573,3.195-0.422l0,0c0.773-0.993,0.573-2.437-0.422-3.192L117.98,204.037z"/>
	<path style="fill:#34495E;" d="M122.156,199.265c-0.937-0.829-2.381-0.758-3.22,0.179l0,0c-0.832,0.934-0.758,2.386,0.177,3.228
		l8.509,7.593c0.929,0.829,2.376,0.758,3.22-0.179l0,0c0.835-0.934,0.755-2.376-0.177-3.22L122.156,199.265z"/>
	<path style="fill:#34495E;" d="M126.676,194.816c-0.87-0.904-2.324-0.924-3.223-0.054l0,0c-0.909,0.873-0.927,2.322-0.059,3.213
		l7.913,8.23c0.865,0.893,2.324,0.927,3.223,0.056l0,0c0.906-0.87,0.927-2.33,0.056-3.228L126.676,194.816z"/>
	<path style="fill:#34495E;" d="M131.52,190.728c-0.804-0.973-2.255-1.098-3.22-0.302l0,0c-0.97,0.801-1.106,2.243-0.3,3.21
		l7.281,8.786c0.801,0.955,2.248,1.091,3.208,0.297l0,0c0.97-0.796,1.111-2.258,0.302-3.213L131.52,190.728z"/>
	<path style="fill:#34495E;" d="M136.643,186.998c-0.717-1.029-2.153-1.272-3.18-0.54l0,0c-1.014,0.727-1.26,2.156-0.543,3.185
		l6.615,9.298c0.717,1.014,2.15,1.265,3.182,0.53l0,0c1.014-0.717,1.257-2.148,0.532-3.182L136.643,186.998z"/>
	<path style="fill:#34495E;" d="M142.057,183.657c-0.645-1.078-2.058-1.426-3.128-0.781l0,0c-1.07,0.653-1.421,2.051-0.776,3.141
		l5.885,9.761c0.653,1.07,2.058,1.428,3.139,0.773l0,0c1.068-0.643,1.418-2.058,0.771-3.128L142.057,183.657z"/>
	<path style="fill:#34495E;" d="M142.963,186.785c-1.155,0.525-1.664,1.871-1.155,3.023l0,0c0.525,1.142,1.879,1.651,3.023,1.142
		l28.191-12.449c1.139-0.525,1.651-1.871,1.139-3.023l0,0c-0.509-1.142-1.869-1.656-3.021-1.142L142.963,186.785z"/>
</g>
<g>
	<path style="fill:#283A4D;" d="M386.54,314.46v48.545c0,1.643-0.632,3.279-1.876,4.523c-1.254,1.242-2.885,1.874-4.516,1.874
		H168.031c-1.618,0-3.254-0.632-4.506-1.874c-1.242-1.242-1.866-2.88-1.866-4.523v-48.712c0-0.225,0.013-0.451,0.041-0.684h224.776
		C386.506,313.897,386.54,314.173,386.54,314.46z"/>
	<path style="fill:#283A4D;" d="M378.975,164.357c-14.502-14.5-33.518-21.757-52.534-21.757H221.75
		c-19.018,0-38.031,7.258-52.547,21.757c-14.502,14.518-21.76,33.528-21.76,52.544h68.096c0-8.745,7.219-35.579,58.55-35.579
		c51.338,0,58.565,26.834,58.565,35.579h68.083C400.732,197.885,393.487,178.875,378.975,164.357z"/>
</g>
<path style="fill:#34495E;" d="M215.537,216.901c-30.694,0-42.171,0-77.082,0c0-21.286,17.257-38.536,38.546-38.536
	C198.277,178.363,215.537,195.612,215.537,216.901z"/>
<path style="fill:#283A4D;" d="M220.9,225.679c0,2.598-2.13,4.728-4.728,4.728h-78.354c-2.604,0-4.731-2.13-4.731-4.728v-4.05
	c0-2.601,2.127-4.731,4.731-4.731h78.351c2.598,0,4.728,2.13,4.728,4.731v4.05H220.9z"/>
<path style="fill:#34495E;" d="M409.723,216.901c-30.687,0-42.168,0-77.071,0c0-21.286,17.249-38.536,38.538-38.536
	C392.468,178.363,409.723,195.612,409.723,216.901z"/>
<path style="fill:#283A4D;" d="M415.086,225.679c0,2.598-2.117,4.728-4.723,4.728h-78.356c-2.604,0-4.726-2.13-4.726-4.728v-4.05
	c0-2.601,2.122-4.731,4.726-4.731h78.356c2.606,0,4.723,2.13,4.723,4.731V225.679z"/>
<path style="fill:#5D6D7E;" d="M384.251,309.573l-6.743-5.66c-7.424-6.231-14.039-13.691-19.489-22.362
	c-5.45-8.66-9.313-17.853-11.725-27.251l-18.545-72.481h-15.334v15.969c0,2.458-0.937,4.908-2.806,6.776
	c-1.866,1.866-4.324,2.803-6.771,2.803H245.34c-2.445,0-4.895-0.937-6.771-2.803c-1.874-1.871-2.811-4.319-2.811-6.776v-15.969
	h-15.319l-18.56,72.481c-2.409,9.398-6.272,18.591-11.722,27.251c-5.443,8.673-12.065,16.133-19.489,22.362l-6.743,5.66
	c-1.997,1.677-2.829,4.48-1.889,7.073c0.945,2.598,3.384,4.214,5.993,4.214h212.109c2.609,0,5.059-1.615,6.003-4.214
	C387.092,314.053,386.245,311.25,384.251,309.573z"/>
<path style="fill:#E1EFFA;" d="M274.084,196.457c-30.313,0-54.879,24.563-54.879,54.879c0,30.313,24.566,54.881,54.879,54.881
	c30.323,0,54.884-24.568,54.884-54.881C328.97,221.018,304.407,196.457,274.084,196.457z"/>
<path style="fill:#34495E;" d="M274.084,195.448c-30.871,0-55.885,25.016-55.885,55.887c0,30.868,25.014,55.885,55.885,55.885
	c30.874,0,55.885-25.016,55.885-55.885C329.971,220.465,304.957,195.448,274.084,195.448z M274.084,202.921
	c4.234,0,7.662,3.425,7.662,7.66s-3.428,7.677-7.662,7.677c-4.232,0-7.662-3.443-7.662-7.677
	C266.422,206.346,269.852,202.921,274.084,202.921z M249.889,209.405c3.653-2.122,8.343-0.863,10.458,2.798
	c2.125,3.666,0.868,8.358-2.796,10.478c-3.674,2.115-8.366,0.855-10.478-2.806S246.211,211.52,249.889,209.405z M232.156,227.123
	c2.117-3.666,6.807-4.923,10.476-2.803c3.671,2.115,4.928,6.81,2.806,10.47c-2.115,3.666-6.81,4.923-10.478,2.811
	C231.293,235.487,230.042,230.784,232.156,227.123z M225.674,251.336c0-4.234,3.428-7.662,7.662-7.662
	c4.232,0,7.67,3.433,7.67,7.662c0,4.232-3.438,7.665-7.67,7.657C229.102,258.993,225.674,255.567,225.674,251.336z M242.632,278.346
	c-3.668,2.115-8.358,0.85-10.476-2.803c-2.115-3.674-0.863-8.358,2.803-10.473c3.671-2.112,8.366-0.855,10.478,2.798
	C247.552,271.542,246.3,276.232,242.632,278.346z M260.347,290.455c-2.115,3.674-6.804,4.931-10.458,2.811
	c-3.681-2.115-4.931-6.804-2.816-10.473c2.115-3.666,6.804-4.923,10.478-2.811C261.215,282.097,262.472,286.789,260.347,290.455z
	 M274.084,299.748c-4.232,0-7.662-3.428-7.662-7.654c0-4.234,3.43-7.677,7.662-7.677c4.234,0,7.662,3.443,7.662,7.677
	C281.748,296.32,278.321,299.748,274.084,299.748z M274.084,271.457c-11.11,0-20.119-9.011-20.119-20.122
	c0-11.116,9.009-20.122,20.119-20.122c11.118,0,20.124,9.006,20.124,20.122C294.211,262.449,285.202,271.457,274.084,271.457z
	 M290.629,222.684c-3.674-2.122-4.923-6.812-2.808-10.478c2.117-3.663,6.807-4.92,10.478-2.798c3.663,2.115,4.92,6.81,2.803,10.47
	C298.988,223.539,294.29,224.799,290.629,222.684z M302.74,234.79c-2.115-3.663-0.863-8.358,2.808-10.47
	c3.661-2.122,8.356-0.863,10.473,2.803c2.112,3.663,0.858,8.366-2.803,10.478C309.553,239.716,304.858,238.456,302.74,234.79z
	 M314.839,258.993c-4.234,0-7.67-3.425-7.67-7.657c0-4.229,3.436-7.662,7.67-7.662c4.229,0,7.657,3.433,7.657,7.662
	C322.499,255.567,319.071,258.993,314.839,258.993z"/>
<path style="fill:#283A4D;" d="M274.084,227.379c-13.21,0-23.946,10.749-23.946,23.956c0,13.197,10.737,23.956,23.946,23.956
	c13.217,0,23.962-10.76,23.962-23.956C298.048,238.129,287.304,227.379,274.084,227.379z M274.084,271.457
	c-11.11,0-20.119-9.011-20.119-20.122c0-11.116,9.009-20.122,20.119-20.122c11.118,0,20.124,9.006,20.124,20.122
	C294.211,262.449,285.202,271.457,274.084,271.457z"/>
<path style="fill:#E1EFFA;" d="M306.084,297.155c-2.614,1.848-5.399,3.456-8.325,4.826l-9.016-18.209
	c-0.294-0.596-0.374-1.308-0.177-2.002c0.195-0.681,0.632-1.242,1.198-1.587l0.125-0.084c0.561-0.343,1.262-0.497,1.966-0.366
	c0.701,0.128,1.3,0.512,1.718,1.047L306.084,297.155z"/>
<g>
</g>
<g>
</g>
<g>
</g>
<g>
</g>
<g>
</g>
<g>
</g>
<g>
</g>
<g>
</g>
<g>
</g>
<g>
</g>
<g>
</g>
<g>
</g>
<g>
</g>
<g>
</g>
<g>
</g>
</svg>
